<svg xmlns:xlink="http://www.w3.org/1999/xlink" xmlns="http://www.w3.org/2000/svg" width="238" height="55" viewBox="0 0 238 55" fill="none">
<path d="M37.9998 5.48635V16.4571L28.4998 21.9414V10.9707L18.9999 16.4551V27.4258L9.49988 21.9414V10.9707L28.4998 0L37.9998 5.48635Z" fill="#FE11C5"/>
<path d="M18.9999 27.4257L9.49997 32.91L0 27.4257L9.49997 21.9413L18.9999 27.4257Z" fill="#FE11C5"/>
<path d="M28.4999 32.9102V43.8809L9.49997 54.8516L0 49.3653V38.3946L9.49997 32.9102V43.8809L18.9999 38.3965V27.4258L28.4999 32.9102Z" fill="#FE11C5"/>
<path d="M37.9999 27.4257L28.5 32.91L19 27.4257L28.5 21.9413L37.9999 27.4257Z" fill="#FE11C5"/>
<path d="M60.0004 28.2584H62.5822C63.2395 33.1724 66.5712 37.8143 72.438 37.8143C75.4424 37.8143 77.8353 36.2215 77.8353 33.2634C77.8353 25.71 60.0004 30.3509 60.0004 17.7925C60.0004 12.3337 64.3191 8.23785 70.8888 8.23785C75.0199 8.23785 76.9902 9.96729 78.3985 9.96729C79.0558 9.96729 79.8056 9.7398 79.8056 8.46551H82.2936V20.5232H79.7118C79.7118 14.6991 76.0513 11.4226 71.5459 11.4226C68.2599 11.4226 65.8658 13.0153 65.8658 15.5184C65.8658 23.0718 83.7019 18.431 83.7019 30.9892C83.7019 36.9043 79.3831 40.999 72.9061 40.999C67.8373 40.999 65.8658 38.9056 63.941 38.9056C63.049 38.9056 62.4868 39.4972 62.4868 40.7715H60V28.2586L60.0004 28.2584ZM102.73 36.449C101.464 39.0431 99.023 41 95.4566 41C93.2501 41 91.2317 40.3174 89.8234 38.8611C88.5101 37.5413 87.712 35.6765 87.712 32.673V24.1638C87.712 22.571 87.4304 21.9793 86.9597 21.5242C86.4915 21.069 85.8332 20.7506 84.426 20.7506H84.1912V17.7925H94.283V32.0801C94.283 33.7641 94.7053 34.7197 95.3157 35.3114C96.0667 36.0395 96.9105 36.2215 97.8025 36.2215C98.9761 36.2215 100.103 35.6753 100.854 34.7652C101.653 33.7641 102.027 32.3533 102.027 29.6692V24.1638C102.027 22.571 101.746 21.9793 101.276 21.5242C100.807 21.069 100.15 20.7506 98.7414 20.7506H98.5079V17.7925H108.599V34.1724C108.599 35.7653 108.88 36.357 109.35 36.812C109.819 37.2671 110.477 37.5856 112.119 37.5856H112.588V40.5438H102.732V36.448L102.73 36.449ZM133.012 30.1096C133.247 35.8449 130.405 40.3788 124.327 40.8942C117.5 41.4733 112.884 36.795 112.316 30.4941C111.727 23.967 115.514 17.8903 122.434 17.3032C128.372 16.7992 131.662 20.3569 131.971 23.802C132.156 25.8419 131.363 27.5076 129.118 27.6977C127.669 27.8204 126.137 27.0366 125.966 25.1332C125.884 24.2264 126.037 23.3003 125.971 22.5744C125.836 21.0782 124.568 20.0907 122.746 20.2443C119.426 20.5265 117.33 23.3981 117.723 27.75C118.075 31.6479 120.282 35.7539 125.192 35.3375C128.231 35.0793 129.916 32.8823 130.44 30.3247L133.012 30.1062V30.1096ZM154.853 30.1038C155.087 35.8392 152.245 40.373 146.167 40.8885C139.34 41.4675 134.725 36.7892 134.157 30.4885C133.567 23.9612 137.355 17.8847 144.274 17.2976C150.212 16.7936 153.502 20.3513 153.812 23.7964C153.996 25.8363 153.204 27.502 150.959 27.6919C149.509 27.8148 147.978 27.0308 147.806 25.1276C147.724 24.2206 147.877 23.2946 147.811 22.5688C147.676 21.0726 146.409 20.0851 144.586 20.2387C141.266 20.5209 139.17 23.3925 139.563 27.7442C139.915 31.6421 142.123 35.7482 147.032 35.3317C150.071 35.0735 151.757 32.8765 152.28 30.3189L154.853 30.1004V30.1038ZM218.595 30.9766C218.314 36.7096 215.075 40.9864 208.973 40.9864C202.121 40.9864 197.944 35.9359 197.944 29.6113C197.944 23.0591 202.263 17.326 209.209 17.326C215.17 17.326 218.127 21.1476 218.127 24.6064C218.127 26.6543 217.188 28.2461 214.935 28.2461C213.481 28.2461 212.026 27.3357 212.026 25.4255C212.026 24.5154 212.26 23.6052 212.26 22.8771C212.26 21.3753 211.087 20.2842 209.256 20.2842C205.923 20.2842 203.577 22.9681 203.577 27.3369C203.577 31.2496 205.408 35.5275 210.336 35.5275C213.387 35.5275 215.264 33.4807 216.015 30.9776H218.597L218.595 30.9766ZM162.63 8C160.33 8 158.546 9.77494 158.546 12.0049C158.546 14.2348 160.33 15.9642 162.63 15.9642C164.918 15.9642 166.749 14.2348 166.749 12.0049C166.749 9.77494 164.918 8 162.63 8ZM198.084 37.5812C196.676 37.5812 196.018 37.2739 195.549 36.8187C195.079 36.3638 194.798 35.7721 194.798 34.1793V25.669C194.798 22.6654 194.094 20.7084 192.779 19.3887C191.371 17.9324 189.258 17.3407 187.287 17.3407C183.25 17.3407 180.809 19.2977 179.541 21.8916V17.7957H169.683V20.7538H170.153C171.796 20.7538 172.453 21.0723 172.922 21.5274C173.392 21.9826 173.673 22.5742 173.673 24.167V34.1792C173.673 35.7719 173.392 36.3636 172.922 36.8186C172.453 37.2737 171.796 37.581 170.153 37.581H169.566C167.923 37.581 167.266 37.2737 166.796 36.8186C166.338 36.3636 166.045 35.7719 166.045 34.1792V17.7957H155.495V20.7538H155.964C157.607 20.7538 158.264 21.0723 158.734 21.5274C159.203 21.9826 159.485 22.5742 159.485 24.167V34.1792C159.485 35.7719 159.203 36.3636 158.734 36.8186C158.264 37.2737 157.607 37.581 155.964 37.581H155.495V40.5391H182.827V37.581H182.593C182.123 37.581 181.372 37.4443 180.903 36.9894C180.433 36.5342 180.245 35.7719 180.245 34.1792V28.6725C180.245 25.9874 180.621 24.6222 181.419 23.621C182.17 22.7109 183.297 22.1192 184.846 22.1192C185.597 22.1192 186.489 22.2557 187.24 22.9839C187.85 23.5755 188.226 24.5767 188.226 26.2604V34.1792C188.226 35.7719 188.038 36.5342 187.569 36.9894C187.099 37.4443 186.348 37.581 185.879 37.581H185.644V40.5391H198.319V37.581L198.084 37.5812ZM238 37.1316C236.687 39.3162 234.011 40.9988 230.912 40.9988C229.035 40.9988 227.299 40.4983 226.032 39.3605C224.764 38.2227 224.107 36.4935 224.107 33.4454V23.7986C224.107 22.3878 223.872 22.0237 223.592 21.7507C223.263 21.4322 222.886 21.2045 221.432 21.2045H219.179V18.7014C225.281 17.6548 227.487 15.1062 228.097 10.2834H230.679V17.7913H237.484V21.2045H233.353C231.898 21.2045 231.523 21.432 231.194 21.7507C230.912 22.0237 230.679 22.3878 230.679 23.7986V33.5354C230.679 34.7185 231.006 35.4467 231.618 35.9018C232.133 36.2658 232.743 36.4468 233.542 36.4468C234.669 36.4468 235.56 35.9461 236.31 35.309L238 37.1294V37.1316Z" fill="#FE11C5"/>
</svg>